<?xml version="1.0" encoding="us-ascii" standalone="no"?><svg xmlns="http://www.w3.org/2000/svg" xmlns:xlink="http://www.w3.org/1999/xlink" contentStyleType="text/css" height="376px" preserveAspectRatio="none" style="width:566px;height:376px;background:#FFFFFF;" version="1.1" viewBox="0 0 566 376" width="566px" zoomAndPan="magnify"><defs/><g><text fill="#000000" font-family="sans-serif" font-size="14" font-weight="bold" lengthAdjust="spacing" textLength="139" x="206.9797" y="24.5332">Gestion des T&#226;ches</text><!--entity student--><g id="elem_student"><ellipse cx="247.5" cy="52.6094" fill="#F1F1F1" rx="8" ry="8" style="stroke:#181818;stroke-width:0.5;"/><path d="M247.5,60.6094 L247.5,87.6094 M234.5,68.6094 L260.5,68.6094 M247.5,87.6094 L234.5,102.6094 M247.5,87.6094 L260.5,102.6094 " fill="none" style="stroke:#181818;stroke-width:0.5;"/><text fill="#000000" font-family="sans-serif" font-size="14" lengthAdjust="spacing" textLength="35" x="230" y="118.6426">El&#232;ve</text></g><!--entity tutor--><g id="elem_tutor"><ellipse cx="374.5" cy="52.6094" fill="#F1F1F1" rx="8" ry="8" style="stroke:#181818;stroke-width:0.5;"/><path d="M374.5,60.6094 L374.5,87.6094 M361.5,68.6094 L387.5,68.6094 M374.5,87.6094 L361.5,102.6094 M374.5,87.6094 L387.5,102.6094 " fill="none" style="stroke:#181818;stroke-width:0.5;"/><text fill="#000000" font-family="sans-serif" font-size="14" lengthAdjust="spacing" textLength="42" x="353.5" y="118.6426">Tuteur</text></g><!--entity user--><g id="elem_user"><ellipse cx="247.5" cy="190.6094" fill="#F1F1F1" rx="8" ry="8" style="stroke:#181818;stroke-width:0.5;"/><path d="M247.5,198.6094 L247.5,225.6094 M234.5,206.6094 L260.5,206.6094 M247.5,225.6094 L234.5,240.6094 M247.5,225.6094 L260.5,240.6094 " fill="none" style="stroke:#181818;stroke-width:0.5;"/><text fill="#000000" font-family="sans-serif" font-size="14" lengthAdjust="spacing" textLength="28" x="233.5" y="256.6426">user</text></g><g id="elem_see_owned_tasks"><ellipse cx="117.347" cy="345.2788" fill="#F1F1F1" rx="111.347" ry="24.6694" style="stroke:#181818;stroke-width:0.5;"/><text fill="#000000" font-family="sans-serif" font-size="14" lengthAdjust="spacing" textLength="186" x="24.347" y="349.0073">Consulter ses propres t&#226;ches</text></g><g id="elem_see_student_assigned_tasks"><ellipse cx="428.7297" cy="220.9553" fill="#F1F1F1" rx="132.2297" ry="28.8459" style="stroke:#181818;stroke-width:0.5;"/><text fill="#000000" font-family="sans-serif" font-size="14" lengthAdjust="spacing" textLength="231" x="313.2297" y="224.6838">Consulter taches assign&#233;es &#224; l'&#233;l&#232;ve</text></g><g id="elem_complete_task"><ellipse cx="377.6774" cy="345.1449" fill="#F1F1F1" rx="113.1774" ry="25.0355" style="stroke:#181818;stroke-width:0.5;"/><text fill="#000000" font-family="sans-serif" font-size="14" lengthAdjust="spacing" textLength="190" x="282.6774" y="348.8734">Compl&#233;ter ses propres t&#226;ches</text></g><!--link student to user--><g id="link_student_user"><path d="M247.5,122.3594 C247.5,140.8994 247.5,145.1094 247.5,163.6794 " fill="none" id="student-to-user" style="stroke:#181818;stroke-width:1.0;"/><polygon fill="none" points="247.5,181.6794,253.5,163.6794,241.5,163.6794,247.5,181.6794" style="stroke:#181818;stroke-width:1.0;"/></g><!--link tutor to user--><g id="link_tutor_user"><path d="M353.34,104.6094 C333.5,124.0794 303.27,154.4194 278.5,182.1094 C272.82,188.4594 278.1611,181.6373 272.9911,188.0373 " fill="none" id="tutor-to-user" style="stroke:#181818;stroke-width:1.0;"/><polygon fill="none" points="261.68,202.0394,277.6585,191.8076,268.3237,184.2669,261.68,202.0394" style="stroke:#181818;stroke-width:1.0;"/></g><!--link user to see_owned_tasks--><g id="link_user_see_owned_tasks"><path d="M233.34,235.3994 C211.49,255.8994 169.27,295.5194 142.28,320.8494 " fill="none" id="user-see_owned_tasks" style="stroke:#181818;stroke-width:1.0;"/></g><!--link user to complete_task--><g id="link_user_complete_task"><path d="M261.67,240.8594 C266.75,247.1894 272.66,254.1494 278.5,260.1094 C300.12,282.1594 326.96,304.6594 347.23,320.8194 " fill="none" id="user-complete_task" style="stroke:#181818;stroke-width:1.0;"/></g><!--link tutor to see_student_assigned_tasks--><g id="link_tutor_see_student_assigned_tasks"><path d="M389.69,122.3594 C398.48,144.5094 409.36,171.9194 417.36,192.0694 " fill="none" id="tutor-see_student_assigned_tasks" style="stroke:#181818;stroke-width:1.0;"/></g><!--SRC=[VP0z3i8m38NtdC9qOOBUW8M12x1NKMeW8asYs865mo0cUevS3BVy2A6AnOwTxpdFOSiEOOF4DdXeaM1RRkQ0fDJCUkDoYr1JH6DtrkW1eheDHeBL-wGxghNXaDvf6NFdb28MdMTOB2uho8H9SPRhhrf9D9eGghMCp8un0SdhCOMO9FFJHGMQf8zDE7ji6zPqf2afwu4McEpUbrwEvGfkNdfNxYVyJ7dvQfxSrC0kkjB_CsC611b7wRZ6iDQKnx7_Wx-_uP-R1m00]--></g></svg>