<?xml version="1.0" encoding="us-ascii" standalone="no"?><svg xmlns="http://www.w3.org/2000/svg" xmlns:xlink="http://www.w3.org/1999/xlink" contentStyleType="text/css" height="223px" preserveAspectRatio="none" style="width:294px;height:223px;background:#FFFFFF;" version="1.1" viewBox="0 0 294 223" width="294px" zoomAndPan="magnify"><defs/><g><text fill="#000000" font-family="sans-serif" font-size="14" font-weight="bold" lengthAdjust="spacing" textLength="94" x="93" y="24.5332">User Diagram</text><!--class User--><g id="elem_User"><rect codeLine="5" fill="#F1F1F1" height="171.2656" id="User" rx="2.5" ry="2.5" style="stroke:#181818;stroke-width:0.5;" width="139" x="7" y="45.6094"/><ellipse cx="57.75" cy="61.6094" fill="#ADD1B2" rx="11" ry="11" style="stroke:#181818;stroke-width:1.0;"/><path d="M60.5156,57.4844 Q60.6719,57.2656 60.8594,57.1563 Q61.0469,57.0469 61.2656,57.0469 Q61.6406,57.0469 61.875,57.3125 Q62.1094,57.5625 62.1094,58.1719 L62.1094,59.625 Q62.1094,60.2344 61.875,60.5 Q61.6406,60.7656 61.2656,60.7656 Q60.9219,60.7656 60.7188,60.5625 Q60.5156,60.375 60.4063,59.8594 Q60.3594,59.5 60.1719,59.3125 Q59.8438,58.9375 59.2344,58.7188 Q58.625,58.5 58,58.5 Q57.2344,58.5 56.5938,58.8281 Q55.9688,59.1563 55.4688,59.9063 Q54.9844,60.6563 54.9844,61.6875 L54.9844,62.7813 Q54.9844,64.0156 55.875,64.8438 Q56.7656,65.6563 58.3594,65.6563 Q59.2969,65.6563 59.9531,65.4063 Q60.3438,65.25 60.7656,64.8125 Q61.0313,64.5469 61.1719,64.4688 Q61.3281,64.3906 61.5313,64.3906 Q61.8594,64.3906 62.1094,64.6563 Q62.375,64.9063 62.375,65.25 Q62.375,65.5938 62.0313,66 Q61.5313,66.5781 60.7344,66.9063 Q59.6563,67.3594 58.3594,67.3594 Q56.8438,67.3594 55.6406,66.7344 Q54.6563,66.2344 53.9688,65.1719 Q53.2813,64.0938 53.2813,62.8125 L53.2813,61.6563 Q53.2813,60.3281 53.8906,59.1875 Q54.5156,58.0313 55.6094,57.4219 Q56.7031,56.7969 57.9375,56.7969 Q58.6719,56.7969 59.3125,56.9688 Q59.9688,57.125 60.5156,57.4844 Z " fill="#000000"/><text fill="#000000" font-family="sans-serif" font-size="14" lengthAdjust="spacing" textLength="29" x="78.25" y="67.3379">User</text><line style="stroke:#181818;stroke-width:0.5;" x1="8" x2="145" y1="77.6094" y2="77.6094"/><text fill="#000000" font-family="sans-serif" font-size="14" lengthAdjust="spacing" textLength="54" x="13" y="96.1426">pk : uuid</text><text fill="#000000" font-family="sans-serif" font-size="14" lengthAdjust="spacing" textLength="71" x="13" y="113.752">role : enum</text><text fill="#000000" font-family="sans-serif" font-size="14" lengthAdjust="spacing" textLength="91" x="13" y="131.3613">username : str</text><text fill="#000000" font-family="sans-serif" font-size="14" lengthAdjust="spacing" textLength="94" x="13" y="148.9707">first_name : str</text><text fill="#000000" font-family="sans-serif" font-size="14" lengthAdjust="spacing" textLength="93" x="13" y="166.5801">last_name : str</text><text fill="#000000" font-family="sans-serif" font-size="14" lengthAdjust="spacing" textLength="127" x="13" y="184.1895">password_hash : str</text><text fill="#000000" font-family="sans-serif" font-size="14" lengthAdjust="spacing" textLength="61" x="13" y="201.7988">email : str</text><line style="stroke:#181818;stroke-width:0.5;" x1="8" x2="145" y1="208.875" y2="208.875"/></g><!--class Student--><g id="elem_Student"><rect codeLine="15" fill="#F1F1F1" height="48" id="Student" rx="2.5" ry="2.5" style="stroke:#181818;stroke-width:0.5;" width="81" x="206" y="65.1094"/><ellipse cx="221" cy="81.1094" fill="#ADD1B2" rx="11" ry="11" style="stroke:#181818;stroke-width:1.0;"/><path d="M223.7656,76.9844 Q223.9219,76.7656 224.1094,76.6563 Q224.2969,76.5469 224.5156,76.5469 Q224.8906,76.5469 225.125,76.8125 Q225.3594,77.0625 225.3594,77.6719 L225.3594,79.125 Q225.3594,79.7344 225.125,80 Q224.8906,80.2656 224.5156,80.2656 Q224.1719,80.2656 223.9688,80.0625 Q223.7656,79.875 223.6563,79.3594 Q223.6094,79 223.4219,78.8125 Q223.0938,78.4375 222.4844,78.2188 Q221.875,78 221.25,78 Q220.4844,78 219.8438,78.3281 Q219.2188,78.6563 218.7188,79.4063 Q218.2344,80.1563 218.2344,81.1875 L218.2344,82.2813 Q218.2344,83.5156 219.125,84.3438 Q220.0156,85.1563 221.6094,85.1563 Q222.5469,85.1563 223.2031,84.9063 Q223.5938,84.75 224.0156,84.3125 Q224.2813,84.0469 224.4219,83.9688 Q224.5781,83.8906 224.7813,83.8906 Q225.1094,83.8906 225.3594,84.1563 Q225.625,84.4063 225.625,84.75 Q225.625,85.0938 225.2813,85.5 Q224.7813,86.0781 223.9844,86.4063 Q222.9063,86.8594 221.6094,86.8594 Q220.0938,86.8594 218.8906,86.2344 Q217.9063,85.7344 217.2188,84.6719 Q216.5313,83.5938 216.5313,82.3125 L216.5313,81.1563 Q216.5313,79.8281 217.1406,78.6875 Q217.7656,77.5313 218.8594,76.9219 Q219.9531,76.2969 221.1875,76.2969 Q221.9219,76.2969 222.5625,76.4688 Q223.2188,76.625 223.7656,76.9844 Z " fill="#000000"/><text fill="#000000" font-family="sans-serif" font-size="14" lengthAdjust="spacing" textLength="49" x="235" y="86.8379">Student</text><line style="stroke:#181818;stroke-width:0.5;" x1="207" x2="286" y1="97.1094" y2="97.1094"/><line style="stroke:#181818;stroke-width:0.5;" x1="207" x2="286" y1="105.1094" y2="105.1094"/></g><!--class Tutor--><g id="elem_Tutor"><rect codeLine="17" fill="#F1F1F1" height="48" id="Tutor" rx="2.5" ry="2.5" style="stroke:#181818;stroke-width:0.5;" width="66" x="213.5" y="148.1094"/><ellipse cx="228.5" cy="164.1094" fill="#ADD1B2" rx="11" ry="11" style="stroke:#181818;stroke-width:1.0;"/><path d="M231.2656,159.9844 Q231.4219,159.7656 231.6094,159.6563 Q231.7969,159.5469 232.0156,159.5469 Q232.3906,159.5469 232.625,159.8125 Q232.8594,160.0625 232.8594,160.6719 L232.8594,162.125 Q232.8594,162.7344 232.625,163 Q232.3906,163.2656 232.0156,163.2656 Q231.6719,163.2656 231.4688,163.0625 Q231.2656,162.875 231.1563,162.3594 Q231.1094,162 230.9219,161.8125 Q230.5938,161.4375 229.9844,161.2188 Q229.375,161 228.75,161 Q227.9844,161 227.3438,161.3281 Q226.7188,161.6563 226.2188,162.4063 Q225.7344,163.1563 225.7344,164.1875 L225.7344,165.2813 Q225.7344,166.5156 226.625,167.3438 Q227.5156,168.1563 229.1094,168.1563 Q230.0469,168.1563 230.7031,167.9063 Q231.0938,167.75 231.5156,167.3125 Q231.7813,167.0469 231.9219,166.9688 Q232.0781,166.8906 232.2813,166.8906 Q232.6094,166.8906 232.8594,167.1563 Q233.125,167.4063 233.125,167.75 Q233.125,168.0938 232.7813,168.5 Q232.2813,169.0781 231.4844,169.4063 Q230.4063,169.8594 229.1094,169.8594 Q227.5938,169.8594 226.3906,169.2344 Q225.4063,168.7344 224.7188,167.6719 Q224.0313,166.5938 224.0313,165.3125 L224.0313,164.1563 Q224.0313,162.8281 224.6406,161.6875 Q225.2656,160.5313 226.3594,159.9219 Q227.4531,159.2969 228.6875,159.2969 Q229.4219,159.2969 230.0625,159.4688 Q230.7188,159.625 231.2656,159.9844 Z " fill="#000000"/><text fill="#000000" font-family="sans-serif" font-size="14" lengthAdjust="spacing" textLength="34" x="242.5" y="169.8379">Tutor</text><line style="stroke:#181818;stroke-width:0.5;" x1="214.5" x2="278.5" y1="180.1094" y2="180.1094"/><line style="stroke:#181818;stroke-width:0.5;" x1="214.5" x2="278.5" y1="188.1094" y2="188.1094"/></g><!--reverse link User to Student--><g id="link_User_Student"><path codeLine="19" d="M163.781,109.5377 C184.071,104.4577 188.14,103.4494 205.93,98.9994 " fill="none" id="User-backto-Student" style="stroke:#181818;stroke-width:1.0;"/><polygon fill="none" points="146.32,113.9094,165.2383,115.358,162.3238,103.7173,146.32,113.9094" style="stroke:#181818;stroke-width:1.0;"/></g><!--reverse link User to Tutor--><g id="link_User_Tutor"><path codeLine="20" d="M163.805,152.1745 C186.995,157.8445 194.31,159.6194 213.31,164.2494 " fill="none" id="User-backto-Tutor" style="stroke:#181818;stroke-width:1.0;"/><polygon fill="none" points="146.32,147.8994,162.3799,158.0028,165.23,146.3462,146.32,147.8994" style="stroke:#181818;stroke-width:1.0;"/></g><!--SRC=[POvB3i8m34JtEOKlq0jKBBa1iAwYncqiygaSMomAToS4YYhmRfwUnYCa0U5IaE58TcORZGau2KW6fjaBE68SXN8oPWosbBUy6gYtNA47LN8jSQvLFM3IsB9MCTduOaMueOcuoF03Q-iVM-gdMsOtU5lyZcEq53xviIqwYJfC0kkNd5KojzpM7kvTjraxqYpp1000]--></g></svg>