<?xml version="1.0" encoding="us-ascii" standalone="no"?><svg xmlns="http://www.w3.org/2000/svg" xmlns:xlink="http://www.w3.org/1999/xlink" contentStyleType="text/css" height="484px" preserveAspectRatio="none" style="width:650px;height:484px;background:#FFFFFF;" version="1.1" viewBox="0 0 650 484" width="650px" zoomAndPan="magnify"><defs/><g><text fill="#000000" font-family="sans-serif" font-size="14" font-weight="bold" lengthAdjust="spacing" textLength="64" x="286.347" y="24.5332">Message</text><!--entity tutor--><g id="elem_tutor"><ellipse cx="315.5" cy="52.6094" fill="#F1F1F1" rx="8" ry="8" style="stroke:#181818;stroke-width:0.5;"/><path d="M315.5,60.6094 L315.5,87.6094 M302.5,68.6094 L328.5,68.6094 M315.5,87.6094 L302.5,102.6094 M315.5,87.6094 L328.5,102.6094 " fill="none" style="stroke:#181818;stroke-width:0.5;"/><text fill="#000000" font-family="sans-serif" font-size="14" lengthAdjust="spacing" textLength="42" x="294.5" y="118.6426">Tuteur</text></g><!--entity student--><g id="elem_student"><ellipse cx="389.5" cy="52.6094" fill="#F1F1F1" rx="8" ry="8" style="stroke:#181818;stroke-width:0.5;"/><path d="M389.5,60.6094 L389.5,87.6094 M376.5,68.6094 L402.5,68.6094 M389.5,87.6094 L376.5,102.6094 M389.5,87.6094 L402.5,102.6094 " fill="none" style="stroke:#181818;stroke-width:0.5;"/><text fill="#000000" font-family="sans-serif" font-size="14" lengthAdjust="spacing" textLength="35" x="372" y="118.6426">El&#232;ve</text></g><g id="elem_send_message"><ellipse cx="130.3193" cy="342.0732" fill="#F1F1F1" rx="87.8193" ry="19.9639" style="stroke:#181818;stroke-width:0.5;"/><text fill="#000000" font-family="sans-serif" font-size="14" lengthAdjust="spacing" textLength="133" x="63.8193" y="345.8017">Envoyer un message</text></g><g id="elem_see_messages"><ellipse cx="352.6681" cy="342.343" fill="#F1F1F1" rx="99.1681" ry="22.2336" style="stroke:#181818;stroke-width:0.5;"/><text fill="#000000" font-family="sans-serif" font-size="14" lengthAdjust="spacing" textLength="159" x="273.1681" y="346.0715">Consulter mes messages</text></g><g id="elem_read_message"><ellipse cx="563.355" cy="342.2804" fill="#F1F1F1" rx="76.355" ry="17.671" style="stroke:#181818;stroke-width:0.5;"/><text fill="#000000" font-family="sans-serif" font-size="14" lengthAdjust="spacing" textLength="105" x="508.1233" y="346.7349">Lire un message</text></g><g id="elem_set_read_message"><ellipse cx="563.597" cy="451.7288" fill="#F1F1F1" rx="81.097" ry="18.6194" style="stroke:#181818;stroke-width:0.5;"/><text fill="#000000" font-family="sans-serif" font-size="14" lengthAdjust="spacing" textLength="117" x="504.5843" y="455.6075">Marquer comme lu</text></g><g id="elem_send_email_notification"><ellipse cx="130.2727" cy="451.3639" fill="#F1F1F1" rx="124.2727" ry="27.2545" style="stroke:#181818;stroke-width:0.5;"/><text fill="#000000" font-family="sans-serif" font-size="14" lengthAdjust="spacing" textLength="214" x="23.2727" y="455.0924">Envoyer une notification par email</text></g><!--entity Utilisateur--><g id="elem_Utilisateur"><ellipse cx="352.5" cy="190.6094" fill="#F1F1F1" rx="8" ry="8" style="stroke:#181818;stroke-width:0.5;"/><path d="M352.5,198.6094 L352.5,225.6094 M339.5,206.6094 L365.5,206.6094 M352.5,225.6094 L339.5,240.6094 M352.5,225.6094 L365.5,240.6094 " fill="none" style="stroke:#181818;stroke-width:0.5;"/><text fill="#000000" font-family="sans-serif" font-size="14" lengthAdjust="spacing" textLength="62" x="321.5" y="256.6426">Utilisateur</text></g><!--link student to Utilisateur--><g id="link_student_Utilisateur"><path d="M379.09,122.3594 C374.05,140.8994 372.7334,145.7402 367.6834,164.3102 " fill="none" id="student-to-Utilisateur" style="stroke:#181818;stroke-width:1.0;"/><polygon fill="none" points="362.96,181.6794,373.4732,165.8847,361.8937,162.7357,362.96,181.6794" style="stroke:#181818;stroke-width:1.0;"/></g><!--link tutor to Utilisateur--><g id="link_tutor_Utilisateur"><path d="M325.91,122.3594 C330.95,140.8994 332.2666,145.7402 337.3166,164.3102 " fill="none" id="tutor-to-Utilisateur" style="stroke:#181818;stroke-width:1.0;"/><polygon fill="none" points="342.04,181.6794,343.1063,162.7357,331.5268,165.8847,342.04,181.6794" style="stroke:#181818;stroke-width:1.0;"/></g><!--link Utilisateur to send_message--><g id="link_Utilisateur_send_message"><path d="M321.16,238.9094 C279.45,261.2694 206.02,300.6294 163.49,323.4294 " fill="none" id="Utilisateur-send_message" style="stroke:#181818;stroke-width:1.0;"/></g><!--link Utilisateur to read_message--><g id="link_Utilisateur_read_message"><path d="M383.63,239.6694 C424.9,262.9394 497.06,303.6394 536.27,325.7494 " fill="none" id="Utilisateur-read_message" style="stroke:#181818;stroke-width:1.0;"/></g><!--link Utilisateur to see_messages--><g id="link_Utilisateur_see_messages"><path d="M352.5,260.4194 C352.5,280.1194 352.5,303.3894 352.5,319.8694 " fill="none" id="Utilisateur-see_messages" style="stroke:#181818;stroke-width:1.0;"/></g><!--link send_message to send_email_notification--><g id="link_send_message_send_email_notification"><path d="M130.5,362.3294 C130.5,379.4794 130.5,398.7694 130.5,417.8894 " fill="none" id="send_message-to-send_email_notification" style="stroke:#181818;stroke-width:1.0;stroke-dasharray:7.0,7.0;"/><polygon fill="#181818" points="130.5,423.8894,134.5,414.8894,130.5,418.8894,126.5,414.8894,130.5,423.8894" style="stroke:#181818;stroke-width:1.0;"/></g><!--link read_message to set_read_message--><g id="link_read_message_set_read_message"><path d="M563.5,359.9094 C563.5,379.7494 563.5,406.6094 563.5,426.8594 " fill="none" id="read_message-to-set_read_message" style="stroke:#181818;stroke-width:1.0;stroke-dasharray:7.0,7.0;"/><polygon fill="#181818" points="563.5,432.8594,567.5,423.8594,563.5,427.8594,559.5,423.8594,563.5,432.8594" style="stroke:#181818;stroke-width:1.0;"/></g><!--SRC=[TP1DRi9038NtFeNBdkG6R2fsiEmwiYOkiZG_wTXJgHA7Pw2X6GBTMBBz_EdvcPXdFB8gdHZWJQBpPMJiTM8dd-B894Njn-Hg4Jfb2jgJivIrToc45Bkf10zGb1qfusOVlzCFPomHmoztWwIe7CTX7YpYzmeltggyhkvwdG_uhjVbu22Pr-ZCz09zfFnLAlZgaj6N6Mh3Q_bYcp4c-_iT9yh8WSGlRzpQeLK1gDNSek5sUzxXXuaN9UEImKeDwtaCJLEtZ_ciTW-Ed-wQcA2bODVj_lNR8cVXAfaB]--></g></svg>